<svg width="31" height="97" viewBox="0 0 31 97" fill="none" xmlns="http://www.w3.org/2000/svg">
<path d="M21.2571 12.3455C21.2571 8.93117 18.4865 6.17273 15.0571 6.17273C11.6278 6.17273 8.85713 8.93117 8.85713 12.3455V61.7273C8.85713 65.1416 11.6278 67.9 15.0571 67.9C18.4865 67.9 21.2571 65.1416 21.2571 61.7273V12.3455ZM15.0571 92.5909C17.1126 92.5909 19.0838 91.778 20.5372 90.331C21.9906 88.884 22.8071 86.9214 22.8071 84.875C22.8071 82.8286 21.9906 80.866 20.5372 79.419C19.0838 77.972 17.1126 77.1591 15.0571 77.1591C13.0017 77.1591 11.0305 77.972 9.57705 79.419C8.12364 80.866 7.30713 82.8286 7.30713 84.875C7.30713 86.9214 8.12364 88.884 9.57705 90.331C11.0305 91.778 13.0017 92.5909 15.0571 92.5909Z" fill="black"/>
</svg>
